<svg width="21" height="22" viewBox="0 0 21 22" fill="none" xmlns="http://www.w3.org/2000/svg">
<path d="M14.6656 14.1286C16.7918 16.2566 18.8547 18.3176 21 20.4629C20.4864 20.9998 20.0341 21.4718 19.5289 22C17.3667 19.794 15.2785 17.6594 13.167 15.5054C10.9646 16.9191 8.66294 17.4516 6.16467 16.748C4.18423 16.1895 2.60115 15.04 1.45558 13.3016C-0.941237 9.66893 -0.271227 5.09241 2.68147 2.26726C5.70814 -0.627162 10.358 -0.765713 13.6024 1.94037C15.3799 3.4233 16.3628 5.37817 16.6164 7.69891C16.8743 10.037 16.1218 12.0936 14.6656 14.1286ZM8.32688 1.19132C4.60273 1.06576 1.11529 4.16368 1.1322 8.49558C1.14911 13.0981 4.66191 15.8691 8.27615 15.8929C12.0722 15.9167 15.5321 12.9682 15.5216 8.49341C15.5131 4.08575 12.0236 1.07875 8.32688 1.19132Z" fill="#92603F"/>
</svg>
