<svg id="Capa_1" enable-background="new 0 0 512 512" height="512" viewBox="0 0 512 512" width="512" xmlns="http://www.w3.org/2000/svg"><g><path d="m502 56h-201c-5.523 0-10 4.477-10 10s4.477 10 10 10h191v280h-472v-280h191c5.523 0 10-4.477 10-10s-4.477-10-10-10h-201c-5.523 0-10 4.477-10 10v380c0 5.523 4.477 10 10 10h492c5.523 0 10-4.477 10-10 0-53.525 0-321.228 0-380 0-5.523-4.477-10-10-10zm-482 320h472v20h-472zm0 60v-20h472v20z"/><circle cx="256" cy="66" r="10"/><path d="m85 116c0 13.785-11.215 25-25 25-5.523 0-10 4.477-10 10v130c0 5.523 4.477 10 10 10 13.785 0 25 11.215 25 25 0 5.523 4.477 10 10 10h322c5.523 0 10-4.477 10-10 0-13.785 11.215-25 25-25 5.523 0 10-4.477 10-10v-130c0-5.523-4.477-10-10-10-13.785 0-25-11.215-25-25 0-5.523-4.477-10-10-10h-322c-5.523 0-10 4.477-10 10zm323.12 10c3.827 16.798 17.082 30.053 33.88 33.88v112.24c-16.798 3.827-30.053 17.082-33.88 33.88h-304.24c-3.827-16.798-17.082-30.053-33.88-33.88v-112.24c16.798-3.827 30.053-17.082 33.88-33.88z"/><path d="m256 286c38.598 0 70-31.402 70-70s-31.402-70-70-70-70 31.402-70 70 31.402 70 70 70zm0-120c27.57 0 50 22.43 50 50s-22.43 50-50 50-50-22.43-50-50 22.43-50 50-50z"/><path d="m392 246c16.542 0 30-13.458 30-30s-13.458-30-30-30-30 13.458-30 30 13.458 30 30 30zm0-40c5.514 0 10 4.486 10 10s-4.486 10-10 10-10-4.486-10-10 4.486-10 10-10z"/><path d="m120 246c16.542 0 30-13.458 30-30s-13.458-30-30-30-30 13.458-30 30 13.458 30 30 30zm0-40c5.514 0 10 4.486 10 10s-4.486 10-10 10-10-4.486-10-10 4.486-10 10-10z"/></g></svg>