<svg width="23" height="23" viewBox="0 0 23 23" fill="none" xmlns="http://www.w3.org/2000/svg">
<path d="M8.46739 14.8908C10.3027 14.8908 12.027 14.8908 13.8797 14.8908C13.9471 15.2733 14.0645 15.6427 14.0688 16.0143C14.0906 17.3898 14.0775 18.7654 14.0775 20.141C14.0775 20.493 14.0775 20.8472 14.0775 21.2623C15.5953 21.2623 16.9935 21.2623 18.52 21.2623C18.5396 20.882 18.5765 20.4995 18.5787 20.1171C18.5852 17.944 18.5765 15.7731 18.5852 13.6C18.5874 13.1871 18.4656 12.696 19.0658 12.5265C19.6203 12.6025 19.5855 13.0263 19.5877 13.4261C19.5898 15.2363 19.5877 17.0465 19.5877 18.8567C19.5877 19.9389 19.5877 21.0189 19.5877 22.0576C18.7701 22.3988 14.3428 22.464 13.0381 22.1576C12.8729 20.1649 13.0555 18.1135 12.9338 15.9947C11.7487 15.9947 10.6201 15.9947 9.38285 15.9947C9.38285 18.0613 9.38285 20.0758 9.38285 22.0424C8.57177 22.3945 4.19454 22.4705 2.85724 22.1728C2.82462 21.9012 2.75721 21.5926 2.75721 21.2818C2.74852 18.5655 2.75069 15.8513 2.75286 13.1349C2.75286 12.6699 2.69198 12.1657 3.32475 12.0375C3.92926 12.2679 3.85967 12.7764 3.86185 13.2349C3.87055 15.4797 3.8662 17.7245 3.8662 19.9693C3.8662 20.3648 3.8662 20.7603 3.8662 21.2927C5.32745 21.3514 6.71694 21.3101 8.17384 21.3188C8.21515 20.9646 8.27604 20.6908 8.27604 20.4148C8.28474 19.0023 8.26734 17.5898 8.28909 16.1794C8.29778 15.7665 8.39998 15.3537 8.46739 14.8908Z" fill="#92603F"/>
<path d="M22.4145 12.0984C22.1753 12.6178 21.8622 12.7286 21.4512 12.4048C21.2251 12.2266 21.0337 12.005 20.8293 11.8007C17.9373 8.91048 15.0409 6.02245 12.1575 3.12356C11.8792 2.84323 11.6791 2.48685 11.366 2.06092C10.6375 2.75196 10.0831 3.2496 9.55901 3.77766C6.90179 6.44403 4.25328 9.11693 1.60042 11.7876C1.39602 11.9919 1.20249 12.2136 0.971992 12.3874C0.550143 12.7069 0.415325 12.6547 0 12.0832C0.478385 11.2574 10.3679 1.38727 11.1616 0.937439C11.1986 0.939612 11.2334 0.941785 11.2703 0.946131C11.3051 0.952651 11.3486 0.950477 11.3747 0.970035C11.5704 1.1265 11.7791 1.27209 11.9553 1.45029C15.3823 4.87941 18.8071 8.31288 22.2297 11.7485C22.2993 11.8224 22.3297 11.9354 22.4145 12.0984Z" fill="#92603F"/>
<path d="M18.0678 6.10718C17.4111 5.73776 17.6025 5.14668 17.5807 4.63383C17.5568 4.1036 17.5764 3.57337 17.5764 2.9171C16.7805 2.9171 16.1064 2.92579 15.4324 2.91275C15.004 2.90406 14.4495 2.94317 14.4451 2.3521C14.4408 1.74146 14.9996 1.811 15.428 1.80883C16.2195 1.80448 17.0132 1.78927 17.8047 1.81317C18.5223 1.8349 18.6789 1.99571 18.6984 2.72587C18.7223 3.58858 18.7006 4.45347 18.7049 5.31835C18.7028 5.72255 18.5788 6.02678 18.0678 6.10718Z" fill="#92603F"/>
</svg>
