<svg width="44" height="45" viewBox="0 0 44 45" fill="none" xmlns="http://www.w3.org/2000/svg">
<path d="M22.2966 0.79657C34.2636 0.79657 44 10.533 44 22.5C44 34.4671 34.2636 44.2035 22.2966 44.2035C10.3295 44.2035 0.593102 34.4671 0.593102 22.5C0.593102 10.533 10.3294 0.79657 22.2966 0.79657ZM22.2966 42.3162C33.2238 42.3162 42.1128 33.4272 42.1128 22.5C42.1128 11.5728 33.2238 2.6838 22.2966 2.6838C11.3693 2.6838 2.48033 11.5728 2.48033 22.5C2.48033 33.4272 11.3693 42.3162 22.2966 42.3162Z" fill="white"/>
<path d="M22.2965 21.5564C29.0605 21.5564 34.5637 27.0597 34.5637 33.8236C34.5637 34.3445 34.1409 34.7673 33.6201 34.7673C33.0992 34.7673 32.6764 34.3444 32.6764 33.8235C32.6764 28.0995 28.0206 23.4436 22.2965 23.4436C16.5725 23.4436 11.9166 28.0995 11.9166 33.8235C11.9166 34.3444 11.4938 34.7672 10.973 34.7672C10.4521 34.7672 10.0293 34.3444 10.0293 33.8235C10.0293 27.0597 15.5325 21.5564 22.2965 21.5564Z" fill="white"/>
<path d="M22.2967 6.45835C25.939 6.45835 28.9021 9.42132 28.9021 13.0638C28.9021 16.7063 25.9391 19.6692 22.2967 19.6692C18.6542 19.6692 15.6912 16.7062 15.6912 13.0638C15.6912 9.42141 18.6542 6.45835 22.2967 6.45835ZM22.2967 17.7819C24.8973 17.7819 27.0148 15.6644 27.0148 13.0638C27.0148 10.4632 24.8973 8.34567 22.2967 8.34567C19.696 8.34567 17.5785 10.4632 17.5785 13.0638C17.5785 15.6644 19.696 17.7819 22.2967 17.7819Z" fill="white"/>
</svg>
