<?xml version="1.0" encoding="utf-8"?>
<!-- Generator: Adobe Illustrator 23.0.0, SVG Export Plug-In . SVG Version: 6.00 Build 0)  -->
<svg version="1.1" id="Capa_1" xmlns="http://www.w3.org/2000/svg" xmlns:xlink="http://www.w3.org/1999/xlink" x="0px" y="0px"
	 viewBox="0 0 500 500" style="enable-background:new 0 0 500 500;" xml:space="preserve">
<style type="text/css">
	.st0{fill:#FFFFFF;}
</style>
<g>
	<path class="st0" d="M426.07,73.93C379.04,26.9,316.51,1,250,1S120.96,26.9,73.93,73.93C26.9,120.96,1,183.49,1,250
		s25.9,129.04,72.93,176.07S183.49,499,250,499s129.04-25.9,176.07-72.93S499,316.51,499,250S473.1,120.96,426.07,73.93z
		 M250,486.38C119.66,486.38,13.62,380.34,13.62,250C13.62,119.66,119.66,13.62,250,13.62S486.38,119.66,486.38,250
		C486.38,380.34,380.34,486.38,250,486.38z"/>
	<path class="st0" d="M395.66,194.46l-26.29,15.67l-46.74-23.13l-34.7,21.73l45.78,22.66l-81.68,48.7l0.04-116.86l88.11,0.03
		l0.01-43.28l-225.07-0.07l-0.01,43.28l87.69,0.03l-0.05,146.26l-0.02,0.01l0,13.53l198.44-118.32l11.39,2.57l-2,12.34l-158.1,95.99
		l-49.74,30.2l0,13.6l0.02-0.01l-0.02,60.46l49.27,0.02l0.02-60.65l0-13.56h-11.6v13.56v49.02H214.4v-55.92l138.79-84.27v50.44
		l34.87-21.46v-50.15l30.51-18.52l5.42-28.57L395.66,194.46z M126.72,151.61v-20.03h201.82v20.03h-88.11v135.42l-26.02,15.51V151.61
		H126.72z M343.62,225.49l-35.85-17.74l15.42-9.66l36.27,17.95L343.62,225.49z M378.38,291.63l-15.5,9.54v-38.99l15.5-9.41V291.63z"
		/>
</g>
</svg>
