<?xml version="1.0" encoding="utf-8"?>
<!-- Generator: Adobe Illustrator 23.0.0, SVG Export Plug-In . SVG Version: 6.00 Build 0)  -->
<svg version="1.1" id="Capa_1" xmlns="http://www.w3.org/2000/svg" xmlns:xlink="http://www.w3.org/1999/xlink" x="0px" y="0px"
	 viewBox="0 0 1080 1080" style="enable-background:new 0 0 1080 1080;" xml:space="preserve">
<style type="text/css">
	.st0{fill:#CAD95B;}
	.st1{fill:#FFFFFF;}
</style>
<circle class="st0" cx="540" cy="540" r="504.5"/>
<path class="st1" d="M740.61,323.37l-39.95,23.82l-71.02-35.14l-52.73,33.02l69.56,34.43l-124.11,74l0.06-177.57l133.89,0.04
	l0.02-65.76l-341.99-0.11l-0.02,65.76l133.24,0.04l-0.07,222.23l-0.03,0.02l0,20.57L749,338.94l17.31,3.91l-3.04,18.75
	L523.04,507.46l-75.58,45.89l-0.01,20.66l0.03-0.02l-0.03,91.88l74.86,0.02l0.03-92.16l0.01-20.61h-17.62v20.61v74.48h-39.53v-84.98
	l210.9-128.04v76.64l52.99-32.61v-76.2l46.36-28.15l8.24-43.42L740.61,323.37z M331.95,258.25v-30.43h306.66v30.43H504.72v205.77
	l-39.53,23.57V258.25H331.95z M661.53,370.53l-54.47-26.96l23.43-14.68l55.12,27.28L661.53,370.53z M714.35,471.02l-23.55,14.49
	v-59.24l23.55-14.3V471.02z"/>
<g>
	<path class="st1" d="M286.3,751.67h-27.54v81.49h-19.33v-81.49h-27.14v-14.89h74.01V751.67z"/>
	<path class="st1" d="M328.8,778.15l-7.08-0.2c-2.87,0-5.23,0.6-7.08,1.79c-1.85,1.19-3.27,2.87-4.24,5.03v48.39h-19.26v-71.63
		h17.94l0.86,10.59c1.68-3.75,3.85-6.67,6.52-8.77c2.67-2.1,5.75-3.14,9.23-3.14c0.97,0,1.86,0.08,2.68,0.23
		c0.82,0.16,1.64,0.34,2.48,0.56L328.8,778.15z"/>
	<path class="st1" d="M381.09,833.16c-0.71-1.63-1.31-3.35-1.82-5.16c-0.51-1.81-0.87-3.66-1.09-5.56
		c-1.99,3.49-4.61,6.38-7.88,8.67c-3.27,2.29-7.15,3.44-11.65,3.44c-7.5,0-13.28-1.93-17.34-5.79c-4.06-3.86-6.09-9.12-6.09-15.79
		c0-7.02,2.7-12.46,8.11-16.32c5.41-3.86,13.29-5.79,23.67-5.79h10.86v-5.69c0-3.44-0.9-6.11-2.71-8.01
		c-1.81-1.9-4.5-2.85-8.08-2.85c-3.13,0-5.55,0.76-7.25,2.28c-1.7,1.52-2.55,3.61-2.55,6.26h-18.6l-0.13-0.4
		c-0.31-6.05,2.33-11.26,7.91-15.66c5.58-4.39,12.88-6.59,21.88-6.59c8.61,0,15.57,2.16,20.89,6.49c5.32,4.33,7.98,10.53,7.98,18.6
		v29.59c0,3.35,0.25,6.51,0.76,9.47c0.51,2.96,1.31,5.89,2.42,8.8H381.09z M363.42,820.25c3.35,0,6.35-0.84,9-2.52
		c2.65-1.68,4.46-3.62,5.43-5.83v-10.13h-10.86c-4.1,0-7.21,1.02-9.3,3.05c-2.1,2.03-3.14,4.52-3.14,7.48
		c0,2.43,0.78,4.36,2.35,5.79C358.46,819.53,360.64,820.25,363.42,820.25z"/>
	<path class="st1" d="M436.57,806.48l1.26,6.62h0.4l1.32-6.62l11.78-44.95h20.19l-24.36,71.63h-18.47l-24.36-71.63h20.19
		L436.57,806.48z"/>
	<path class="st1" d="M510.11,834.55c-10.68,0-19.02-3.28-25.02-9.83c-6-6.55-9-14.99-9-25.32v-2.65c0-10.72,2.91-19.51,8.74-26.35
		c5.83-6.84,13.84-10.24,24.03-10.19c9.62,0,17,2.95,22.14,8.84c5.14,5.89,7.71,13.83,7.71,23.8v10h-42.7l-0.2,0.4
		c0.31,4.9,1.8,8.87,4.47,11.92c2.67,3.04,6.63,4.57,11.88,4.57c4.32,0,8-0.44,11.02-1.32c3.02-0.88,6.15-2.23,9.37-4.04l5.23,11.92
		c-2.87,2.34-6.75,4.3-11.65,5.89S515.89,834.55,510.11,834.55z M508.85,775.1c-3.88,0-6.87,1.33-8.97,4
		c-2.1,2.67-3.37,6.21-3.81,10.62l0.13,0.33h23.57v-1.46c0-4.19-0.86-7.49-2.58-9.9S512.69,775.1,508.85,775.1z"/>
	<path class="st1" d="M570.29,833.16h-19.33V729.89h19.33V833.16z"/>
	<path class="st1" d="M617.22,834.55c-10.68,0-19.02-3.28-25.02-9.83s-9-14.99-9-25.32v-2.65c0-10.72,2.91-19.51,8.74-26.35
		c5.83-6.84,13.84-10.24,24.03-10.19c9.62,0,17,2.95,22.14,8.84c5.14,5.89,7.71,13.83,7.71,23.8v10h-42.7l-0.2,0.4
		c0.31,4.9,1.8,8.87,4.47,11.92c2.67,3.04,6.63,4.57,11.88,4.57c4.32,0,8-0.44,11.02-1.32c3.02-0.88,6.14-2.23,9.37-4.04l5.23,11.92
		c-2.87,2.34-6.75,4.3-11.65,5.89S623,834.55,617.22,834.55z M615.96,775.1c-3.88,0-6.88,1.33-8.97,4s-3.37,6.21-3.81,10.62
		l0.13,0.33h23.57v-1.46c0-4.19-0.86-7.49-2.58-9.9S619.8,775.1,615.96,775.1z"/>
	<path class="st1" d="M694.74,778.15l-7.08-0.2c-2.87,0-5.23,0.6-7.08,1.79c-1.85,1.19-3.27,2.87-4.24,5.03v48.39h-19.26v-71.63
		h17.94l0.86,10.59c1.68-3.75,3.85-6.67,6.52-8.77s5.75-3.14,9.23-3.14c0.97,0,1.87,0.08,2.68,0.23c0.82,0.16,1.64,0.34,2.48,0.56
		L694.74,778.15z"/>
	<path class="st1" d="M714.79,833.16h-19.33v-16.95h19.33V833.16z"/>
	<path class="st1" d="M797.41,799.33c0,10.59-2.45,19.11-7.35,25.55s-11.74,9.67-20.52,9.67c-3.75,0-7.08-0.7-9.99-2.09
		c-2.91-1.39-5.41-3.43-7.48-6.12v34.36H732.8v-99.16h17.41l1.13,8.47c2.12-3.13,4.67-5.55,7.64-7.25c2.98-1.7,6.46-2.55,10.43-2.55
		c8.87,0,15.75,3.46,20.65,10.39c4.9,6.93,7.35,16.04,7.35,27.34V799.33z M778.08,797.94c0-6.75-1.13-12.22-3.38-16.42
		c-2.25-4.19-5.69-6.29-10.33-6.29c-2.91,0-5.4,0.6-7.45,1.79c-2.05,1.19-3.67,2.89-4.87,5.1v31.38c1.19,2.03,2.81,3.57,4.87,4.63
		c2.05,1.06,4.58,1.59,7.58,1.59c4.68,0,8.11-1.83,10.29-5.49c2.18-3.66,3.28-8.63,3.28-14.89V797.94z"/>
	<path class="st1" d="M840.37,834.55c-10.68,0-19.02-3.28-25.02-9.83c-6-6.55-9-14.99-9-25.32v-2.65c0-10.72,2.91-19.51,8.74-26.35
		c5.83-6.84,13.84-10.24,24.03-10.19c9.62,0,17,2.95,22.14,8.84s7.71,13.83,7.71,23.8v10h-42.7l-0.2,0.4
		c0.31,4.9,1.8,8.87,4.47,11.92s6.63,4.57,11.88,4.57c4.32,0,8-0.44,11.02-1.32c3.02-0.88,6.14-2.23,9.37-4.04l5.23,11.92
		c-2.87,2.34-6.75,4.3-11.65,5.89S846.15,834.55,840.37,834.55z M839.11,775.1c-3.88,0-6.87,1.33-8.97,4
		c-2.1,2.67-3.37,6.21-3.81,10.62l0.13,0.33h23.57v-1.46c0-4.19-0.86-7.49-2.58-9.9C845.73,776.31,842.95,775.1,839.11,775.1z"/>
</g>
</svg>
