<svg width="23" height="15" viewBox="0 0 23 15" fill="none" xmlns="http://www.w3.org/2000/svg">
<path d="M11.4909 14.9803C8.73291 14.9803 5.97491 14.9238 3.21904 14.9984C1.22903 15.0529 -0.0332766 13.6758 0.000667953 11.9258C0.0579495 8.97004 0.00914685 6.0143 0.0197545 3.05656C0.0261192 1.08472 1.15478 0.00807927 3.24237 0.00606309C8.79231 -0.00401786 14.3423 0.00606295 19.8922 1.43812e-05C20.779 -0.00200181 21.5618 0.207682 22.2047 0.816571C22.7011 1.28836 22.996 1.83475 22.996 2.51622C22.9939 5.80865 23.0109 9.10109 22.9875 12.3935C22.9769 13.7988 21.8673 14.8674 20.3992 14.9722C20.1171 14.9924 19.8349 14.9803 19.5506 14.9803C16.8626 14.9803 14.1768 14.9803 11.4909 14.9803ZM1.30541 3.69972C1.30541 5.8147 1.30541 7.72806 1.30541 9.63941C1.30541 10.4802 1.29268 11.3189 1.30965 12.1596C1.33299 13.2605 1.83155 13.7202 3.00476 13.7605C3.1469 13.7645 3.28692 13.7625 3.42907 13.7625C8.83899 13.7625 14.2468 13.7625 19.6567 13.7625C19.9049 13.7625 20.151 13.7645 20.3992 13.7484C21.0315 13.7101 21.4727 13.3996 21.651 12.829C21.7592 12.4822 21.808 12.1072 21.8101 11.7463C21.8228 9.3269 21.8186 6.90748 21.8164 4.49007C21.8164 4.26425 21.7952 4.04046 21.7782 3.72795C21.4876 3.86706 21.2691 3.96182 21.0591 4.07272C18.2204 5.57276 15.3712 7.05667 12.5538 8.59099C11.8622 8.96802 11.2936 9.02246 10.5935 8.6293C9.01296 7.74419 7.39847 6.91151 5.79459 6.06269C4.34558 5.29654 2.89656 4.53845 1.30541 3.69972ZM11.5227 7.76637C14.9236 5.96592 18.3011 4.17756 21.7188 2.36904C21.5088 1.6795 21.1354 1.30046 20.4502 1.25005C20.1341 1.22586 19.8158 1.21981 19.4976 1.21981C14.198 1.21779 8.89839 1.21779 3.59879 1.21981C3.31662 1.21981 3.03446 1.22384 2.7523 1.23795C2.04158 1.27223 1.58333 1.61498 1.30541 2.34686C4.70199 4.14933 8.07948 5.93971 11.5227 7.76637Z" fill="#92603F"/>
</svg>
