<svg width="21" height="23" viewBox="0 0 21 23" fill="none" xmlns="http://www.w3.org/2000/svg">
<path d="M17.3011 19.1453C16.6315 19.1453 15.962 19.1562 15.2925 19.1409C15.0022 19.1344 14.8697 19.1974 14.808 19.506C14.3944 21.592 12.6303 23.0043 10.48 23C8.33199 22.9956 6.55874 21.5615 6.16799 19.4886C6.11543 19.2105 6.01032 19.1366 5.72696 19.1409C4.52956 19.154 3.32987 19.1344 2.13247 19.1518C1.26641 19.1649 0.455201 19.0301 0.148995 18.1545C-0.164066 17.2614 0.016455 16.3988 0.688279 15.6708C0.802535 15.547 0.941931 15.421 1.0996 15.3601C2.17818 14.9473 2.56208 14.0738 2.67862 13.0938C2.85229 11.6315 3.00539 10.1604 3.03738 8.69155C3.11279 5.16278 4.71466 2.90733 8.16975 1.5949C8.32514 1.53624 8.48053 1.38414 8.55365 1.23638C8.94669 0.449795 9.57738 -0.00216509 10.496 7.79907e-06C11.4123 0.00218068 12.0476 0.445449 12.4361 1.24072C12.5115 1.395 12.7011 1.5471 12.8725 1.60577C16.0031 2.677 17.8838 5.17799 17.934 8.33737C17.9615 10.0778 17.9683 11.8227 18.4208 13.5306C18.631 14.328 19.0355 14.9538 19.8398 15.3623C20.7973 15.849 21.2269 17.0854 20.8818 18.0741C20.6602 18.7085 20.1232 19.0845 19.3668 19.1323C19.3143 19.1366 19.2617 19.1366 19.2091 19.1366C18.5739 19.1366 17.9409 19.1366 17.3056 19.1366C17.3011 19.1366 17.3011 19.1409 17.3011 19.1453ZM9.4517 2.33151C6.05145 2.97903 3.94457 5.706 4.10453 8.92404C4.18679 10.595 4.03598 12.2746 3.59723 13.9108C3.33445 14.8908 2.866 15.7252 1.81941 16.1402C1.75543 16.1663 1.69374 16.2032 1.63661 16.2423C1.22529 16.5183 0.962496 17.2918 1.13388 17.7351C1.3304 18.237 1.79428 18.098 2.17589 18.098C7.58705 18.1045 12.9982 18.1023 18.4094 18.1023C18.7087 18.1023 19.0263 18.1588 19.3028 18.0828C19.5154 18.0263 19.7759 17.8372 19.849 17.6482C20.0455 17.1354 19.7736 16.4574 19.2548 16.2249C18.1191 15.7143 17.6256 14.8039 17.3536 13.7153C16.9058 11.9226 16.876 10.0996 16.8486 8.27218C16.8189 6.34483 16.0283 4.72603 14.3967 3.58961C13.5535 3.00076 12.532 2.64006 11.506 2.13595C11.3826 1.36675 11.097 1.02126 10.4869 1.02126C9.87444 1.02126 9.56596 1.39935 9.4517 2.33151ZM7.24656 19.0193C7.15287 20.5598 8.79816 22.0135 10.5486 21.9679C12.2944 21.9222 13.8757 20.4664 13.7226 19.0193C11.5654 19.0193 9.406 19.0193 7.24656 19.0193Z" fill="#92603F"/>
</svg>
