<svg width="23" height="23" viewBox="0 0 23 23" fill="none" xmlns="http://www.w3.org/2000/svg">
<path d="M21.4151 2.6977C20.8513 1.76645 19.9747 1.19859 18.8087 1.01133C18.7064 0.995136 18.6214 0.964769 18.5546 0.937439H4.10304C3.92185 1.00323 3.73965 1.06194 3.56251 1.11964C3.12017 1.26338 2.70212 1.40003 2.35189 1.60753C1.41558 2.16223 0.836585 3.03376 0.631103 4.19782C0.611871 4.30815 0.579479 4.40229 0.553162 4.4782V18.9459C0.620981 19.1312 0.682726 19.3184 0.74346 19.4996C0.893269 19.9531 1.03498 20.3803 1.2516 20.7376C1.81541 21.6698 2.69199 22.2367 3.85707 22.424C3.9593 22.4401 4.04433 22.4705 4.11113 22.4978H18.5667C18.7388 22.4371 18.9119 22.3814 19.0799 22.3278C19.502 22.1922 19.8998 22.0646 20.2389 21.8723C21.2137 21.3206 21.818 20.4329 22.0356 19.2344C22.0559 19.1261 22.0872 19.033 22.1136 18.9571V4.48833C22.0457 4.30309 21.984 4.11583 21.9233 3.93464C21.7735 3.48217 21.6317 3.05501 21.4151 2.6977ZM21.07 13.3929C21.07 14.6136 21.071 15.8334 21.0689 17.0541C21.0649 19.7638 19.3887 21.4492 16.6961 21.4522C14.9318 21.4542 13.1402 21.4553 11.3344 21.4553C9.55691 21.4553 7.76628 21.4542 5.97262 21.4522C3.31957 21.4492 1.60284 19.7426 1.59879 17.1057C1.59272 13.2248 1.59272 9.68408 1.5998 6.27997C1.60385 4.2292 2.73957 2.64911 4.56461 2.15515C4.97355 2.04481 5.4331 1.99015 5.97059 1.98813C9.60853 1.97699 13.2748 1.97902 16.6951 1.98307C19.3887 1.9861 21.0649 3.67146 21.0689 6.38018C21.071 7.61104 21.07 8.8409 21.07 10.0718V11.7429V13.3929Z" fill="#CAD95B"/>
<path d="M12.0217 6.5199H10.6379V11.0294H6.13556V12.4131H10.645V16.9155H12.0287V12.406H16.5311V11.0223H12.0217V6.5199Z" fill="#CAD95B"/>
</svg>
