<svg width="25" height="25" viewBox="0 0 25 25" fill="none" xmlns="http://www.w3.org/2000/svg">
<path d="M12.5 0C19.3924 0 25 5.60764 25 12.5C25 19.3924 19.3924 25 12.5 25C5.60762 25 -2.1461e-05 19.3924 -2.1461e-05 12.5C-2.1461e-05 5.60764 5.60757 0 12.5 0ZM12.5 23.9131C18.7935 23.9131 23.9131 18.7935 23.9131 12.5C23.9131 6.20652 18.7935 1.08694 12.5 1.08694C6.2065 1.08694 1.08692 6.20652 1.08692 12.5C1.08692 18.7935 6.2065 23.9131 12.5 23.9131Z" fill="#92603F"/>
<path d="M12.5 11.9565C16.3957 11.9565 19.5652 15.1261 19.5652 19.0218C19.5652 19.3218 19.3218 19.5653 19.0218 19.5653C18.7217 19.5653 18.4783 19.3217 18.4783 19.0217C18.4783 15.725 15.7967 13.0435 12.5 13.0435C9.20325 13.0435 6.52174 15.725 6.52174 19.0217C6.52174 19.3217 6.27824 19.5652 5.97824 19.5652C5.67824 19.5652 5.43475 19.3217 5.43475 19.0217C5.43475 15.1261 8.60432 11.9565 12.5 11.9565Z" fill="#92603F"/>
<path d="M12.4999 3.26086C14.5978 3.26086 16.3043 4.96737 16.3043 7.06524C16.3043 9.1631 14.5978 10.8696 12.4999 10.8696C10.4021 10.8696 8.69557 9.16305 8.69557 7.06524C8.69557 4.96742 10.4021 3.26086 12.4999 3.26086ZM12.4999 9.78262C13.9978 9.78262 15.2173 8.56305 15.2173 7.06524C15.2173 5.56743 13.9978 4.34786 12.4999 4.34786C11.0021 4.34786 9.78257 5.56743 9.78257 7.06524C9.78257 8.56305 11.0021 9.78262 12.4999 9.78262Z" fill="#92603F"/>
</svg>
